<svg width="28" height="28" viewBox="0 0 28 28" fill="none" xmlns="http://www.w3.org/2000/svg">
<g clip-path="url(#clip0_431_602)">
<path d="M26.8993 8.55066C26.1943 6.88357 25.1853 5.38608 23.9001 4.1005C22.614 2.8153 21.1162 1.80574 19.4499 1.1008C17.7239 0.370647 15.8901 0.000183105 14 0.000183105C12.1102 0.000183105 10.2766 0.370592 8.55048 1.1008C6.88339 1.80574 5.38589 2.81536 4.10026 4.1005C2.81512 5.38608 1.80556 6.88357 1.10056 8.55066C0.370464 10.2768 0 12.1105 0 14.0002C0 15.8902 0.370409 17.724 1.10062 19.45C1.80556 21.1164 2.81518 22.6142 4.10032 23.8994C5.38589 25.1854 6.88339 26.1945 8.55053 26.8995C10.2766 27.6292 12.1103 28.0001 14 28.0001C15.8901 28.0001 17.7239 27.6292 19.4499 26.8995C21.1162 26.1945 22.6141 25.1854 23.9001 23.8994C25.1853 22.6142 26.1944 21.1163 26.8994 19.45C27.6292 17.724 28 15.8902 28 14.0002C27.9999 12.1105 27.6291 10.2768 26.8993 8.55066Z" fill="#ED5564"/>
<path d="M0.00561523 14.3931C0.0534682 16.1439 0.42087 17.8435 1.10066 19.4499C1.8056 21.1162 2.81521 22.614 4.10035 23.8992C5.38593 25.1853 6.88343 26.1944 8.55057 26.8993C10.2767 27.6291 12.1103 27.9999 14.0001 27.9999C15.8902 27.9999 17.724 27.6291 19.4499 26.8993C21.1163 26.1943 22.6141 25.1853 23.9002 23.8992C25.1854 22.614 26.1944 21.1162 26.8994 19.4499C27.5796 17.8435 27.947 16.1439 27.9949 14.3931H0.00561523Z" fill="#E6E9ED"/>
<path d="M27.9333 15.3792C27.9777 14.9229 27.9999 14.4631 27.9999 14C27.9999 13.4796 27.9717 12.9635 27.9162 12.4529C27.2206 12.5602 26.2217 12.6999 24.9631 12.8387C22.5739 13.1023 18.7338 13.4168 14 13.4168C9.26652 13.4168 5.42603 13.1023 3.03727 12.8387C1.77822 12.6999 0.779703 12.5602 0.0841665 12.4529C0.0282196 12.9635 0 13.4797 0 14C0 14.4631 0.0222038 14.9229 0.066666 15.3792C2.3379 15.721 7.34179 16.3328 14 16.3328C20.6582 16.3328 25.662 15.721 27.9333 15.3792Z" fill="#434A54"/>
<path d="M16.9173 14.5832C16.9173 16.1943 15.6107 17.5 14 17.5C12.3893 17.5 11.0833 16.1943 11.0833 14.5832C11.0833 12.9724 12.3893 11.6668 14 11.6668C15.6107 11.6668 16.9173 12.9725 16.9173 14.5832Z" fill="#E6E9ED"/>
<path d="M14 9.33325C11.105 9.33325 8.75 11.6887 8.75 14.5832C8.75 17.4778 11.105 19.8327 14 19.8327C16.895 19.8327 19.2499 17.4778 19.2499 14.5832C19.2499 11.6887 16.895 9.33325 14 9.33325ZM14 16.9173C12.7136 16.9173 11.6668 15.8696 11.6668 14.5832C11.6668 13.2968 12.7135 12.25 14 12.25C15.2869 12.25 16.3327 13.2968 16.3327 14.5832C16.3327 15.8696 15.2869 16.9173 14 16.9173Z" fill="#434A54"/>
<path opacity="0.2" d="M26.8993 8.55063C26.1943 6.88354 25.1852 5.38604 23.9 4.10047C22.614 2.81527 21.1162 1.80571 19.4498 1.10077C17.7238 0.370617 15.8901 0.000152588 14 0.000152588C13.8047 0.000152588 13.6103 0.00441834 13.4167 0.0121295C15.1006 0.0804909 16.7343 0.445814 18.2827 1.10077C19.9506 1.80571 21.4477 2.81533 22.7328 4.10047C24.018 5.38604 25.028 6.88354 25.7328 8.55063C26.4634 10.2767 26.8326 12.1105 26.8326 14.0002C26.8326 15.8902 26.4634 17.724 25.7328 19.4501C25.028 21.1164 24.018 22.6142 22.7328 23.8994C21.4477 25.1855 19.9506 26.1945 18.2827 26.8995C16.7343 27.5541 15.1005 27.9198 13.4167 27.9881C13.6103 27.9958 13.8047 28.0001 14 28.0001C15.8901 28.0001 17.7238 27.6292 19.4498 26.8995C21.1162 26.1945 22.614 25.1854 23.9 23.8994C25.1852 22.6142 26.1943 21.1163 26.8993 19.4501C27.6291 17.724 27.9999 15.8902 27.9999 14.0002C27.9999 12.1105 27.6291 10.2767 26.8993 8.55063Z" fill="white"/>
<path opacity="0.1" d="M1.10062 19.45C1.80556 21.1164 2.81518 22.6142 4.10032 23.8994C5.38589 25.1854 6.88339 26.1945 8.55053 26.8995C10.2766 27.6292 12.1103 28.0001 14 28.0001C14.1953 28.0001 14.3897 27.9958 14.5832 27.9881C12.8994 27.9197 11.2652 27.554 9.71689 26.8995C8.0498 26.1945 6.55274 25.1854 5.26716 23.8994C3.98159 22.6142 2.97241 21.1163 2.26703 19.45C1.53682 17.724 1.16685 15.8903 1.16685 14.0002C1.16685 12.1104 1.53682 10.2767 2.26697 8.5506C2.97235 6.88352 3.98153 5.38597 5.26711 4.10088C6.55268 2.8153 8.04974 1.80569 9.71683 1.10075C11.2652 0.44579 12.8994 0.0804667 14.5832 0.0121053C14.3896 0.00444886 14.1952 0.000183105 14 0.000183105C12.1102 0.000183105 10.2766 0.370592 8.55048 1.1008C6.88339 1.80574 5.38589 2.81536 4.10026 4.10094C2.81512 5.38608 1.80556 6.88357 1.10056 8.55066C0.370464 10.2768 0 12.1105 0 14.0002C0 15.8902 0.370464 17.724 1.10062 19.45Z" fill="black"/>
</g>
<defs>
<clipPath id="clip0_431_602">
<rect width="28" height="28" fill="white"/>
</clipPath>
</defs>
</svg>
