<?xml version="1.0" encoding="UTF-8"?>
<svg id="Capa_1" data-name="Capa 1" xmlns="http://www.w3.org/2000/svg" viewBox="0 0 588.64 552.87">
  <defs>
    <style>
      .cls-1 {
        fill: #007a33;
      }

      .cls-1, .cls-2 {
        stroke-width: 10px;
      }

      .cls-1, .cls-2, .cls-3, .cls-4 {
        stroke: #1d1d1b;
        stroke-miterlimit: 10;
      }

      .cls-2 {
        fill: #859403;
      }

      .cls-3 {
        fill: #009640;
      }

      .cls-3, .cls-4 {
        stroke-width: 12px;
      }

      .cls-4 {
        fill: #eee300;
      }
    </style>
  </defs>
  <path class="cls-1" d="m581.42,490.66l-9.53-63.8-18.72-22.56,27.25-20.75v-214.22l-140.67-107.11-113.1,107.11v214.22l113.1,107.11,60.21-45.84,56.09,34.36,25.38,11.48Zm-201.71-147.51v-133.42l87.62-66.71,87.62,66.71v133.42l-15.28,11.64-17.01,6.26-66.17-20.95,7.65,51.21,3.21,18.55-87.62-66.71Z"/>
  <polygon class="cls-2" points="289.11 85.29 331.39 144.72 352.14 134.37 341.3 35.32 144.61 35.32 46.27 168.43 126.07 276.43 46.27 384.44 144.61 517.55 341.3 517.55 365.46 484.85 346.9 394.66 289.71 468.7 181.71 467.35 120.46 384.44 181.71 301.53 304.21 301.53 304.21 301.53 358.32 276.43 304.21 251.33 181.71 251.33 120.46 168.43 181.71 85.52 289.11 85.29"/>
  <path class="cls-3" d="m581.42,490.66l-9.53-63.8-18.72-22.56,27.25-20.75v-214.22l-140.67-107.11-140.67,107.11v214.22l140.67,107.11,60.21-45.84,28.52,34.36,52.95,11.48Zm-229.29-147.51v-133.42l87.62-66.71,87.62,66.71v133.42l-15.28,11.64-2.66-3.21-52.95-11.48,7.65,51.21-24.37,18.55-87.62-66.71Z"/>
  <polygon class="cls-4" points="296.76 62.31 344.79 134.51 389.71 99.76 338.36 6 117.76 6 7.46 155.29 96.96 276.43 7.46 397.57 117.76 546.87 338.36 546.87 397.03 458.13 348.19 420.94 296.76 490.56 159.36 490.56 90.67 397.57 159.36 304.59 296.76 304.59 296.76 304.59 357.46 276.43 296.76 248.28 159.36 248.28 90.67 155.29 159.36 62.31 296.76 62.31"/>
</svg>