<svg width="90" height="82" viewBox="0 0 90 82" fill="none" xmlns="http://www.w3.org/2000/svg">
<path d="M72.1863 28.9434C71.2875 28.6637 70.3822 28.4032 69.4705 28.1619C69.6217 27.6013 69.7611 27.0376 69.8889 26.4706C71.9455 17.3577 70.6008 10.0162 66.0111 7.59942C61.6166 5.28035 54.4096 7.69711 47.1393 13.4755C46.4244 14.0457 45.7242 14.6329 45.0387 15.2373C44.5816 14.8358 44.1129 14.4429 43.6324 14.0585C36.0123 7.87969 28.3746 5.27715 23.7902 7.70192C19.3957 10.0258 18.0896 16.9269 19.9406 25.5641C20.1258 26.4183 20.3338 27.2687 20.5646 28.1154C19.4836 28.3957 18.4395 28.6952 17.441 29.0123C8.51836 31.8551 2.8125 36.3122 2.8125 40.9343C2.8125 45.7102 8.93672 50.4989 18.2408 53.4025C18.9955 53.6363 19.7572 53.8536 20.526 54.0543C20.2764 54.9608 20.0555 55.8774 19.8633 56.8042C18.1055 65.2925 19.4766 72.0303 23.8623 74.3397C28.3922 76.7245 35.9912 74.2741 43.3986 68.3643C43.9846 67.8966 44.5705 67.4028 45.1564 66.8829C45.8971 67.5352 46.6588 68.1684 47.4416 68.7823C54.6135 74.4166 61.6957 76.6924 66.0744 74.3766C70.6008 71.9838 72.0721 64.7448 70.1613 55.9378C70.0148 55.2651 69.8461 54.5786 69.6551 53.8782C70.1894 53.734 70.7127 53.5851 71.2248 53.4313C80.8928 50.5053 87.191 45.7743 87.191 40.9391C87.1875 36.2946 81.2988 31.8086 72.1863 28.9434ZM49.5105 15.958C55.7385 11.0075 61.5603 9.05363 64.2146 10.4502C67.0394 11.938 68.1381 17.9375 66.3627 25.806C66.2455 26.3185 66.1189 26.8294 65.983 27.3387C62.2663 26.5684 58.4974 26.0248 54.7014 25.7115C52.5279 22.8589 50.1453 20.1434 47.5699 17.5836C48.2004 17.0262 48.8461 16.4843 49.507 15.958H49.5105ZM27.726 44.8838C28.4889 46.2291 29.2863 47.5579 30.1184 48.8701C30.9656 50.209 31.8486 51.5281 32.7674 52.8275C30.1554 52.5688 27.5598 52.1877 24.9908 51.6856C25.7361 49.4883 26.6537 47.2061 27.726 44.8838ZM27.726 37.1434C26.6713 34.8708 25.7783 32.635 25.0453 30.4761C27.4535 29.9845 30.0199 29.5825 32.6953 29.2782C31.7988 30.553 30.9363 31.8465 30.1078 33.1587C29.2793 34.471 28.4836 35.7992 27.7207 37.1434H27.726ZM29.642 41.0144C30.7529 38.9036 31.9494 36.8333 33.2314 34.8036C34.5123 32.7749 35.8758 30.7927 37.3219 28.857C39.832 28.684 42.4055 28.5927 45.0053 28.5927C47.6051 28.5927 50.1943 28.684 52.7027 28.8586C54.1336 30.79 55.4889 32.7653 56.7686 34.7843C58.0482 36.8034 59.2605 38.864 60.4055 40.9664C59.2758 43.0847 58.0664 45.1635 56.7773 47.2029C55.4988 49.2315 54.1512 51.2196 52.7344 53.1671C50.2295 53.3272 47.6367 53.4153 45 53.4153C42.3633 53.4153 39.8197 53.34 37.3605 53.1943C35.9039 51.2521 34.5293 49.2614 33.2367 47.2221C31.9441 45.1827 30.7441 43.1135 29.6367 41.0144H29.642ZM59.8975 48.8477C60.7471 47.5045 61.5627 46.1437 62.3443 44.7653C63.4158 46.9788 64.3616 49.241 65.1779 51.5431C62.5788 52.0763 59.9508 52.4853 57.3047 52.7683C58.1977 51.4774 59.0619 50.1706 59.8975 48.8477ZM62.3092 37.145C61.5311 35.7944 60.7219 34.4598 59.8816 33.1411C59.0613 31.8407 58.2064 30.5562 57.317 29.2878C60.0082 29.5985 62.5904 30.0117 65.0109 30.5162C64.2327 32.7656 63.331 34.978 62.3092 37.145ZM45.0404 19.9363C46.7957 21.6837 48.4531 23.5108 50.0062 25.4104C46.684 25.2663 43.3594 25.2663 40.0324 25.4104C41.6725 23.4341 43.3512 21.6003 45.0404 19.9363ZM25.6043 10.5479C28.4273 9.05524 34.6693 11.1885 41.2488 16.5169C41.6689 16.858 42.0926 17.2152 42.5145 17.5852C39.9258 20.1446 37.5264 22.8578 35.332 25.7067C31.5444 26.0176 27.7829 26.5526 24.0715 27.3082C23.857 26.5224 23.6637 25.7312 23.4914 24.9347C21.9006 17.5307 22.9535 11.9493 25.6043 10.5479ZM21.4893 50.8832C20.7861 50.7007 20.0918 50.5026 19.4062 50.2891C15.293 49.0078 11.8951 47.3358 9.5625 45.5148C7.47422 43.8828 6.41602 42.254 6.41602 40.9343C6.41602 38.13 10.9969 34.5521 18.6363 32.1257C19.5961 31.8214 20.5641 31.5433 21.5402 31.2913C22.6748 34.6134 24.0489 37.8637 25.6535 41.0208C24.0298 44.2216 22.6387 47.5162 21.4893 50.8832ZM41.0238 65.8851C37.749 68.4988 34.4689 70.3518 31.5773 71.2856C28.9793 72.1232 26.9103 72.1472 25.6605 71.4889C22.9992 70.0876 21.8918 64.6759 23.4018 57.4176C23.5811 56.5635 23.7861 55.7093 24.017 54.8551C27.7656 55.5908 31.5648 56.0933 35.3883 56.359C37.6041 59.2227 40.0233 61.9512 42.6305 64.527C42.1066 64.9962 41.5705 65.4479 41.0238 65.8851ZM45.1406 62.1663C43.432 60.483 41.7269 58.6204 40.0641 56.6184C41.6801 56.6761 43.3254 56.7049 45 56.7049C46.7191 56.7049 48.4207 56.6713 50.0977 56.6024C48.5501 58.5325 46.8956 60.3896 45.1406 62.1663ZM67.0289 66.7451C66.5262 69.2179 65.5154 70.8675 64.2656 71.5274C61.6061 72.9336 55.9195 71.1062 49.7883 66.2871C49.0852 65.7361 48.382 65.1452 47.6666 64.5254C50.223 61.9396 52.5855 59.2001 54.7383 56.3254C58.5829 56.0286 62.4006 55.4908 66.1641 54.7158C66.3363 55.35 66.4887 55.9714 66.6211 56.58C67.4666 60.4718 67.5879 63.992 67.0289 66.7451ZM70.0875 50.3067C69.6269 50.446 69.1523 50.5806 68.6707 50.7119C67.4906 47.3741 66.0629 44.1133 64.3975 40.952C66.0004 37.8328 67.3722 34.6192 68.5037 31.333C69.3668 31.562 70.2053 31.8022 71.0121 32.0569C78.8203 34.5105 83.584 38.1428 83.584 40.9343C83.584 43.9132 78.4389 47.7794 70.0875 50.3067Z" fill="black"/>
<path d="M45 47.8147C46.496 47.8191 47.9598 47.419 49.206 46.665C50.4523 45.9109 51.4249 44.8369 52.0008 43.579C52.5766 42.321 52.7298 40.9356 52.441 39.5982C52.1521 38.2608 51.4342 37.0317 50.3781 36.0663C49.322 35.1009 47.9752 34.4428 46.5083 34.1752C45.0414 33.9077 43.5204 34.0428 42.1378 34.5633C40.7552 35.0839 39.5732 35.9666 38.7416 37.0996C37.91 38.2326 37.466 39.5649 37.466 40.9279C37.4639 41.831 37.6572 42.7255 38.0348 43.5604C38.4124 44.3954 38.9669 45.1543 39.6665 45.7939C40.3662 46.4335 41.1974 46.9411 42.1126 47.2879C43.0277 47.6346 44.0089 47.8136 45 47.8147Z" fill="black"/>
</svg>
